<?xml version="1.0" standalone="no"?>
<!DOCTYPE svg PUBLIC "-//W3C//DTD SVG 20010904//EN"
 "http://www.w3.org/TR/2001/REC-SVG-20010904/DTD/svg10.dtd">
<svg version="1.0" xmlns="http://www.w3.org/2000/svg"
 width="500.000000pt" height="500.000000pt" viewBox="0 0 500.000000 500.000000"
 preserveAspectRatio="xMidYMid meet">

<g transform="translate(0.000000,500.000000) scale(0.100000,-0.100000)"
fill="#000000" stroke="none">
<path d="M2103 4215 c-55 -17 -127 -59 -150 -88 -17 -21 -24 -22 -99 -19 -67
3 -88 0 -127 -18 -50 -24 -108 -85 -127 -135 -20 -52 -14 -150 13 -208 56
-122 245 -317 307 -317 18 0 21 -4 17 -22 -22 -90 -29 -160 -25 -241 3 -81 8
-103 36 -160 70 -142 238 -250 447 -287 92 -16 329 -8 410 14 158 43 319 159
373 268 30 62 45 150 39 229 l-6 67 44 6 c51 8 109 47 157 107 92 116 91 238
-4 367 -79 106 -264 268 -355 312 -47 22 -142 27 -161 8 -8 -8 -15 -8 -25 0
-8 7 -49 21 -92 32 -89 23 -261 27 -346 9 -51 -11 -51 -11 -88 24 -65 64 -145
82 -238 52z m150 -105 c34 -27 50 -80 42 -133 -20 -119 -205 -396 -297 -443
-55 -29 -76 -20 -162 69 -45 46 -96 109 -115 141 -60 100 -51 196 23 249 41
29 125 29 181 -2 34 -18 42 -19 50 -7 5 7 24 34 41 58 55 79 178 114 237 68z
m521 -75 c107 -33 113 -45 177 -330 26 -119 74 -233 133 -318 l40 -58 0 -117
c0 -102 -3 -123 -22 -163 -58 -118 -164 -191 -342 -235 -73 -18 -317 -18 -390
0 -251 62 -371 188 -369 389 0 104 30 246 55 264 97 71 189 183 266 323 37 66
68 161 68 203 0 24 5 40 15 43 67 26 283 25 369 -1z m313 -72 c80 -55 216
-192 262 -263 33 -51 41 -72 41 -109 0 -94 -102 -211 -170 -195 -64 14 -132
129 -168 284 -12 47 -30 124 -41 173 -11 48 -30 105 -40 126 -11 21 -18 41
-14 44 9 9 72 -20 130 -60z"/>
<path d="M2286 3558 c-36 -51 -5 -118 53 -118 32 0 71 39 71 70 0 10 -9 29
-21 44 -27 34 -81 36 -103 4z"/>
<path d="M2746 3558 c-35 -50 -4 -118 54 -118 59 0 90 67 54 118 -11 16 -25
22 -54 22 -29 0 -43 -6 -54 -22z"/>
<path d="M2486 3385 c-41 -22 -55 -44 -56 -86 0 -39 22 -69 70 -94 17 -9 30
-19 30 -24 0 -27 -25 -69 -49 -84 -60 -35 -118 -16 -152 49 -23 45 -52 57 -77
32 -30 -30 10 -114 76 -157 52 -35 140 -35 200 -1 l42 24 38 -21 c84 -48 169
-38 233 28 42 43 60 99 39 125 -21 25 -53 12 -76 -30 -26 -46 -56 -65 -102
-66 -59 0 -120 90 -77 114 10 6 31 22 47 35 26 21 29 29 26 74 -2 41 -8 54
-31 71 -36 27 -140 34 -181 11z"/>
<path d="M2345 1711 c-46 -12 -72 -28 -100 -65 -20 -26 -25 -44 -25 -90 0 -90
35 -126 161 -166 97 -31 111 -43 107 -93 -4 -54 -31 -70 -111 -63 -43 3 -67
11 -93 31 -19 15 -36 25 -38 24 -1 -2 -13 -19 -25 -36 l-22 -33 47 -29 c53
-34 112 -46 190 -38 101 10 158 68 157 159 -1 82 -41 120 -166 159 -109 35
-146 88 -94 137 31 29 92 29 152 0 l46 -23 20 25 c27 35 21 51 -31 77 -50 25
-129 36 -175 24z"/>
<path d="M2680 1440 l0 -280 50 0 50 0 0 131 c0 115 2 134 20 159 36 51 119
51 145 -1 11 -20 15 -63 15 -159 l0 -130 51 0 52 0 -5 148 c-6 170 -18 207
-78 241 -51 29 -108 27 -154 -4 -20 -14 -39 -25 -41 -25 -3 0 -5 45 -5 100 l0
100 -50 0 -50 0 0 -280z"/>
<path d="M998 1704 c-5 -4 -8 -128 -8 -276 l0 -269 53 3 52 3 3 91 3 92 89 4
c81 4 93 7 127 34 103 82 96 226 -14 291 -45 26 -57 28 -173 31 -69 2 -128 0
-132 -4z m250 -100 c31 -21 44 -59 36 -101 -9 -48 -52 -73 -126 -73 l-58 0 0
95 0 95 63 0 c41 0 70 -5 85 -16z"/>
<path d="M1938 1613 c-3 -46 -4 -48 -35 -51 -24 -2 -33 -8 -33 -22 0 -36 12
-50 41 -50 l29 0 0 -135 c0 -134 0 -135 28 -166 24 -27 37 -33 85 -37 67 -5
85 5 79 48 -4 27 -8 30 -43 30 -52 0 -58 17 -56 151 l2 104 50 5 c48 5 50 6
50 35 0 29 -2 30 -50 35 l-50 5 -3 48 -3 47 -44 0 -44 0 -3 -47z"/>
<path d="M1548 1556 c-66 -29 -104 -86 -114 -168 -17 -141 69 -238 211 -238
59 0 135 25 150 49 11 19 -24 64 -43 55 -64 -27 -100 -35 -131 -29 -38 7 -91
57 -91 86 0 17 11 19 143 21 l142 3 -1 52 c-3 108 -81 184 -188 182 -28 0 -63
-6 -78 -13z m143 -82 c10 -9 22 -29 28 -45 l10 -29 -100 0 c-56 0 -99 4 -99
10 0 24 26 60 54 75 35 17 81 13 107 -11z"/>
<path d="M3240 1546 c-68 -34 -104 -99 -104 -185 1 -130 67 -201 197 -208 61
-4 79 -1 117 19 116 60 146 213 64 324 -53 72 -185 96 -274 50z m164 -67 c54
-25 77 -135 41 -196 -44 -75 -158 -71 -197 7 -33 65 -17 148 34 184 26 19 87
21 122 5z"/>
<path d="M3788 1553 c-16 -8 -33 -24 -40 -36 -12 -22 -12 -21 -18 8 -5 27 -9
30 -48 33 l-42 3 0 -281 0 -281 48 3 47 3 3 98 c1 53 5 97 8 97 3 0 14 -9 25
-19 26 -24 79 -34 132 -26 77 14 147 114 147 211 0 76 -54 163 -117 189 -44
18 -109 18 -145 -2z m112 -82 c59 -43 64 -153 10 -211 -37 -40 -94 -42 -139
-4 -30 25 -31 29 -31 102 1 83 9 102 56 127 33 17 67 13 104 -14z"/>
</g>
</svg>
